Coordinates
nRows=5
nColumns=24

# SIMM Motion File Header:
name Coordinates
datacolumns 24
datarows 5
otherdata 1
range 0.83000000000000007000 0.83400000000000007000
endheader
time	pelvis_tx	pelvis_ty	pelvis_tz	pelvis_tilt	pelvis_list	pelvis_rotation	hip_flexion_r	hip_adduction_r	hip_rotation_r	knee_angle_r	ankle_angle_r	subtalar_angle_r	mtp_angle_r	hip_flexion_l	hip_adduction_l	hip_rotation_l	knee_angle_l	ankle_angle_l	subtalar_angle_l	mtp_angle_l	lumbar_extension	lumbar_bending	lumbar_rotation
      0.83000000000000007000	      0.60514846468851402000	      1.02186879023724120000	      0.02392580843003480300	      4.62419310158821690000	     -1.00696850107961120000	      3.46576016989599810000	     14.40289685496072100000	      0.39961156303212264000	     -7.15220439639546510000	    -23.03708106419442100000	      4.20125759742380910000	      0.00795275255142114180	      0.05862421728113865300	     -1.18758834832592800000	     -4.11104382637200240000	     -1.13928274266253290000	    -59.68446185357083800000	     -5.76185270869466580000	     -0.00379889603298288030	     -0.09007361124694519800	    -15.08803254931145700000	      4.45088799303660210000	     -5.24714266574104290000
      0.83100000000000007000	      0.60512308621590227000	      1.02204309929618150000	      0.02414467046386852700	      4.62743633990187940000	     -1.02863086822498810000	      3.46291482486771460000	     14.30447694758320400000	      0.44422147387354760000	     -7.15860293083655460000	    -22.99000279735171400000	      4.23993715940461510000	      0.02891353390377603100	      0.06675437962466265800	     -1.01029480917700300000	     -4.17305251394066620000	     -1.20257119665441350000	    -59.92801532623976600000	     -5.80451577438315440000	     -0.00755818147664358810	     -0.09201918252616633800	    -15.08806092657488500000	      4.46926269399152880000	     -5.21279742119805170000
      0.83200000000000007000	      0.60509686992621037000	      1.02221808599349020000	      0.02436274306312825200	      4.63064976430302980000	     -1.04995642288884340000	      3.46000630244601750000	     14.20573771362831500000	      0.48795597043189110000	     -7.16573734246233410000	    -22.94211386484474200000	      4.27687830849874740000	      0.06945135386556688900	      0.07942180002660527400	     -0.83353991562578922000	     -4.23448792997806840000	     -1.26568612891755050000	    -60.16875750028783200000	     -5.84383935754770880000	     -0.01495521145964905400	     -0.09571591845355395500	    -15.08811469600591500000	      4.48718175692781430000	     -5.17838968901712700000
      0.83300000000000007000	      0.60506951879607884000	      1.02239398807522930000	      0.02457974760458479100	      4.63382171240323260000	     -1.07082565474862210000	      3.45701190854877180000	     14.10656749713665700000	      0.53050577812819322000	     -7.17386635184614810000	    -22.89312856190605000000	      4.31149137535416300000	      0.13647330202127864000	      0.09818494719770408400	     -0.65751377093493413000	     -4.29514661349241500000	     -1.32856573915943940000	    -60.40569032416410500000	     -5.87863860667696510000	     -0.02727541920691618800	     -0.10178192659356280000	    -15.08820160315834300000	      4.50448323737949790000	     -5.14389710766816230000
      0.83400000000000007000	      0.60504216766594721000	      1.02256989015696840000	      0.02479675214604133400	      4.63699366050343630000	     -1.09169488660840060000	      3.45401751465152620000	     14.00739728064500200000	      0.57305558582449534000	     -7.18199536122996210000	    -22.84414325896735700000	      4.34610444220957960000	      0.20349525017699041000	      0.11694809436880289000	     -0.48148762624407898000	     -4.35580529700676070000	     -1.39144534940132840000	    -60.64262314804037100000	     -5.91343785580622150000	     -0.03959562695418332400	     -0.10784793473357167000	    -15.08828851031077000000	      4.52178471783118230000	     -5.10940452631919670000
